<mxfile host="app.diagrams.net" modified="2023-05-26T21:15:35.652Z" agent="Mozilla/5.0 (Windows NT 10.0; Win64; x64) AppleWebKit/537.36 (KHTML, like Gecko) Chrome/113.0.0.0 Safari/537.36" etag="bFK3DPcowpBfh5IV_fer" version="21.3.4" type="google">
  <diagram name="Página-1" id="HDp2iVP_SLhnPVIM7knd">
    <mxGraphModel grid="1" page="1" gridSize="10" guides="1" tooltips="1" connect="1" arrows="1" fold="1" pageScale="1" pageWidth="827" pageHeight="1169" math="0" shadow="0">
      <root>
        <mxCell id="0" />
        <mxCell id="1" parent="0" />
        <mxCell id="TL1BfnCfJIUlocQQRKoT-1" value="Colaboradores" style="rounded=0;whiteSpace=wrap;html=1;" vertex="1" parent="1">
          <mxGeometry x="240" y="125" width="110" height="40" as="geometry" />
        </mxCell>
        <mxCell id="TL1BfnCfJIUlocQQRKoT-2" value="&lt;span style=&quot;font-size: 10px;&quot;&gt;escriben&lt;/span&gt;" style="rhombus;whiteSpace=wrap;html=1;" vertex="1" parent="1">
          <mxGeometry x="250" y="210" width="90" height="30" as="geometry" />
        </mxCell>
        <mxCell id="TL1BfnCfJIUlocQQRKoT-4" value="" style="endArrow=none;html=1;rounded=0;entryX=0.5;entryY=1;entryDx=0;entryDy=0;exitX=0.5;exitY=0;exitDx=0;exitDy=0;" edge="1" parent="1" source="TL1BfnCfJIUlocQQRKoT-2" target="TL1BfnCfJIUlocQQRKoT-1">
          <mxGeometry width="50" height="50" relative="1" as="geometry">
            <mxPoint x="210" y="295" as="sourcePoint" />
            <mxPoint x="260" y="245" as="targetPoint" />
          </mxGeometry>
        </mxCell>
        <mxCell id="TL1BfnCfJIUlocQQRKoT-5" value="(1:n)" style="text;html=1;strokeColor=none;fillColor=none;align=center;verticalAlign=middle;whiteSpace=wrap;rounded=0;" vertex="1" parent="1">
          <mxGeometry x="250" y="160" width="60" height="30" as="geometry" />
        </mxCell>
        <mxCell id="TL1BfnCfJIUlocQQRKoT-6" value="" style="endArrow=none;html=1;rounded=0;entryX=0.5;entryY=1;entryDx=0;entryDy=0;exitX=0.5;exitY=0;exitDx=0;exitDy=0;" edge="1" parent="1" source="TL1BfnCfJIUlocQQRKoT-1">
          <mxGeometry width="50" height="50" relative="1" as="geometry">
            <mxPoint x="210" y="435" as="sourcePoint" />
            <mxPoint x="295" y="85" as="targetPoint" />
          </mxGeometry>
        </mxCell>
        <mxCell id="TL1BfnCfJIUlocQQRKoT-7" value="Artículos" style="rounded=0;whiteSpace=wrap;html=1;" vertex="1" parent="1">
          <mxGeometry x="240" y="280" width="110" height="40" as="geometry" />
        </mxCell>
        <mxCell id="TL1BfnCfJIUlocQQRKoT-8" value="&lt;font style=&quot;&quot;&gt;&lt;u style=&quot;&quot;&gt;&lt;span style=&quot;font-size: 10px;&quot;&gt;ID&lt;br&gt;Colaborador&lt;/span&gt;&lt;br&gt;&lt;/u&gt;&lt;/font&gt;" style="ellipse;whiteSpace=wrap;html=1;" vertex="1" parent="1">
          <mxGeometry x="263.25" y="57.5" width="63.5" height="30" as="geometry" />
        </mxCell>
        <mxCell id="TL1BfnCfJIUlocQQRKoT-9" value="&lt;font style=&quot;&quot;&gt;&lt;span style=&quot;font-size: 10px;&quot;&gt;Nombre y Apellido&lt;/span&gt;&lt;br&gt;&lt;/font&gt;" style="ellipse;whiteSpace=wrap;html=1;" vertex="1" parent="1">
          <mxGeometry x="186.5" y="57.5" width="63.5" height="30" as="geometry" />
        </mxCell>
        <mxCell id="TL1BfnCfJIUlocQQRKoT-11" value="&lt;font style=&quot;&quot;&gt;&lt;span style=&quot;font-size: 10px;&quot;&gt;Nombre de Usuario&lt;/span&gt;&lt;br&gt;&lt;/font&gt;" style="ellipse;whiteSpace=wrap;html=1;" vertex="1" parent="1">
          <mxGeometry x="110" y="100" width="63.5" height="30" as="geometry" />
        </mxCell>
        <mxCell id="TL1BfnCfJIUlocQQRKoT-12" value="&lt;font style=&quot;&quot;&gt;&lt;span style=&quot;font-size: 10px;&quot;&gt;Email&lt;/span&gt;&lt;br&gt;&lt;/font&gt;" style="ellipse;whiteSpace=wrap;html=1;" vertex="1" parent="1">
          <mxGeometry x="110.00999999999999" y="180" width="63.5" height="30" as="geometry" />
        </mxCell>
        <mxCell id="TL1BfnCfJIUlocQQRKoT-14" value="&lt;font style=&quot;&quot;&gt;&lt;span style=&quot;font-size: 10px;&quot;&gt;Estado&lt;/span&gt;&lt;br&gt;&lt;/font&gt;" style="ellipse;whiteSpace=wrap;html=1;" vertex="1" parent="1">
          <mxGeometry x="336.5" y="60" width="63.5" height="30" as="geometry" />
        </mxCell>
        <mxCell id="TL1BfnCfJIUlocQQRKoT-15" value="&lt;font style=&quot;&quot;&gt;&lt;span style=&quot;font-size: 10px;&quot;&gt;Fecha de Registro&lt;/span&gt;&lt;br&gt;&lt;/font&gt;" style="ellipse;whiteSpace=wrap;html=1;" vertex="1" parent="1">
          <mxGeometry x="371.75" y="100" width="63.5" height="30" as="geometry" />
        </mxCell>
        <mxCell id="TL1BfnCfJIUlocQQRKoT-16" value="&lt;font style=&quot;&quot;&gt;&lt;span style=&quot;font-size: 10px;&quot;&gt;Avatar&lt;/span&gt;&lt;br&gt;&lt;/font&gt;" style="ellipse;whiteSpace=wrap;html=1;" vertex="1" parent="1">
          <mxGeometry x="178.63" y="190" width="63.5" height="30" as="geometry" />
        </mxCell>
        <mxCell id="TL1BfnCfJIUlocQQRKoT-17" value="" style="endArrow=none;html=1;rounded=0;exitX=1;exitY=0;exitDx=0;exitDy=0;entryX=0;entryY=0.75;entryDx=0;entryDy=0;" edge="1" parent="1" source="TL1BfnCfJIUlocQQRKoT-12" target="TL1BfnCfJIUlocQQRKoT-1">
          <mxGeometry width="50" height="50" relative="1" as="geometry">
            <mxPoint x="340" y="330" as="sourcePoint" />
            <mxPoint x="390" y="280" as="targetPoint" />
          </mxGeometry>
        </mxCell>
        <mxCell id="TL1BfnCfJIUlocQQRKoT-18" value="" style="endArrow=none;html=1;rounded=0;exitX=1;exitY=1;exitDx=0;exitDy=0;entryX=0;entryY=0.5;entryDx=0;entryDy=0;" edge="1" parent="1" source="TL1BfnCfJIUlocQQRKoT-11" target="TL1BfnCfJIUlocQQRKoT-1">
          <mxGeometry width="50" height="50" relative="1" as="geometry">
            <mxPoint x="204" y="204" as="sourcePoint" />
            <mxPoint x="278" y="175" as="targetPoint" />
          </mxGeometry>
        </mxCell>
        <mxCell id="TL1BfnCfJIUlocQQRKoT-19" value="" style="endArrow=none;html=1;rounded=0;exitX=1;exitY=1;exitDx=0;exitDy=0;entryX=0;entryY=0.25;entryDx=0;entryDy=0;" edge="1" parent="1" source="TL1BfnCfJIUlocQQRKoT-61" target="TL1BfnCfJIUlocQQRKoT-1">
          <mxGeometry width="50" height="50" relative="1" as="geometry">
            <mxPoint x="203.5" y="125" as="sourcePoint" />
            <mxPoint x="250" y="155" as="targetPoint" />
          </mxGeometry>
        </mxCell>
        <mxCell id="TL1BfnCfJIUlocQQRKoT-20" value="" style="endArrow=none;html=1;rounded=0;exitX=1;exitY=1;exitDx=0;exitDy=0;entryX=0.25;entryY=0;entryDx=0;entryDy=0;" edge="1" parent="1" source="TL1BfnCfJIUlocQQRKoT-9" target="TL1BfnCfJIUlocQQRKoT-1">
          <mxGeometry width="50" height="50" relative="1" as="geometry">
            <mxPoint x="214" y="175" as="sourcePoint" />
            <mxPoint x="250" y="165" as="targetPoint" />
          </mxGeometry>
        </mxCell>
        <mxCell id="TL1BfnCfJIUlocQQRKoT-21" value="" style="endArrow=none;html=1;rounded=0;exitX=1;exitY=0;exitDx=0;exitDy=0;entryX=0.25;entryY=1;entryDx=0;entryDy=0;" edge="1" parent="1" source="TL1BfnCfJIUlocQQRKoT-16" target="TL1BfnCfJIUlocQQRKoT-1">
          <mxGeometry width="50" height="50" relative="1" as="geometry">
            <mxPoint x="204" y="204" as="sourcePoint" />
            <mxPoint x="278" y="175" as="targetPoint" />
          </mxGeometry>
        </mxCell>
        <mxCell id="TL1BfnCfJIUlocQQRKoT-22" value="" style="endArrow=none;html=1;rounded=0;exitX=0;exitY=1;exitDx=0;exitDy=0;entryX=1;entryY=0.25;entryDx=0;entryDy=0;" edge="1" parent="1" source="TL1BfnCfJIUlocQQRKoT-15" target="TL1BfnCfJIUlocQQRKoT-1">
          <mxGeometry width="50" height="50" relative="1" as="geometry">
            <mxPoint x="420" y="204" as="sourcePoint" />
            <mxPoint x="333" y="175" as="targetPoint" />
          </mxGeometry>
        </mxCell>
        <mxCell id="TL1BfnCfJIUlocQQRKoT-23" value="" style="endArrow=none;html=1;rounded=0;exitX=0;exitY=1;exitDx=0;exitDy=0;entryX=0.75;entryY=0;entryDx=0;entryDy=0;" edge="1" parent="1" source="TL1BfnCfJIUlocQQRKoT-14" target="TL1BfnCfJIUlocQQRKoT-1">
          <mxGeometry width="50" height="50" relative="1" as="geometry">
            <mxPoint x="410" y="175" as="sourcePoint" />
            <mxPoint x="360" y="165" as="targetPoint" />
          </mxGeometry>
        </mxCell>
        <mxCell id="TL1BfnCfJIUlocQQRKoT-24" value="" style="endArrow=none;html=1;rounded=0;exitX=1;exitY=0.5;exitDx=0;exitDy=0;entryX=0;entryY=0.5;entryDx=0;entryDy=0;" edge="1" parent="1" source="TL1BfnCfJIUlocQQRKoT-98" target="TL1BfnCfJIUlocQQRKoT-1">
          <mxGeometry width="50" height="50" relative="1" as="geometry">
            <mxPoint x="349.5692782991148" y="83.23260727462196" as="sourcePoint" />
            <mxPoint x="360" y="145" as="targetPoint" />
          </mxGeometry>
        </mxCell>
        <mxCell id="TL1BfnCfJIUlocQQRKoT-25" value="" style="endArrow=none;html=1;rounded=0;entryX=0.5;entryY=1;entryDx=0;entryDy=0;exitX=0.5;exitY=0;exitDx=0;exitDy=0;" edge="1" parent="1" source="TL1BfnCfJIUlocQQRKoT-7" target="TL1BfnCfJIUlocQQRKoT-2">
          <mxGeometry width="50" height="50" relative="1" as="geometry">
            <mxPoint x="305" y="135" as="sourcePoint" />
            <mxPoint x="305" y="95" as="targetPoint" />
          </mxGeometry>
        </mxCell>
        <mxCell id="TL1BfnCfJIUlocQQRKoT-26" value="&lt;font style=&quot;&quot;&gt;&lt;span style=&quot;font-size: 10px;&quot;&gt;Título&lt;/span&gt;&lt;br&gt;&lt;/font&gt;" style="ellipse;whiteSpace=wrap;html=1;" vertex="1" parent="1">
          <mxGeometry x="150" y="240" width="63.5" height="30" as="geometry" />
        </mxCell>
        <mxCell id="TL1BfnCfJIUlocQQRKoT-27" value="&lt;font style=&quot;&quot;&gt;&lt;span style=&quot;font-size: 10px;&quot;&gt;Resumen&lt;/span&gt;&lt;br&gt;&lt;/font&gt;" style="ellipse;whiteSpace=wrap;html=1;" vertex="1" parent="1">
          <mxGeometry x="150" y="280" width="63.5" height="30" as="geometry" />
        </mxCell>
        <mxCell id="TL1BfnCfJIUlocQQRKoT-28" value="&lt;font style=&quot;&quot;&gt;&lt;span style=&quot;font-size: 10px;&quot;&gt;Contenido Completo&lt;/span&gt;&lt;br&gt;&lt;/font&gt;" style="ellipse;whiteSpace=wrap;html=1;" vertex="1" parent="1">
          <mxGeometry x="382" y="363" width="63.5" height="30" as="geometry" />
        </mxCell>
        <mxCell id="TL1BfnCfJIUlocQQRKoT-29" value="&lt;font style=&quot;&quot;&gt;&lt;span style=&quot;font-size: 10px;&quot;&gt;Imagen que lo identifica&lt;/span&gt;&lt;br&gt;&lt;/font&gt;" style="ellipse;whiteSpace=wrap;html=1;" vertex="1" parent="1">
          <mxGeometry x="320" y="387" width="63.5" height="30" as="geometry" />
        </mxCell>
        <mxCell id="TL1BfnCfJIUlocQQRKoT-30" value="&lt;font style=&quot;&quot;&gt;&lt;span style=&quot;font-size: 10px;&quot;&gt;Fecha de Publicación&lt;/span&gt;&lt;br&gt;&lt;/font&gt;" style="ellipse;whiteSpace=wrap;html=1;" vertex="1" parent="1">
          <mxGeometry x="193.5" y="387" width="63.5" height="30" as="geometry" />
        </mxCell>
        <mxCell id="TL1BfnCfJIUlocQQRKoT-31" value="&lt;font style=&quot;&quot;&gt;&lt;span style=&quot;font-size: 10px;&quot;&gt;Estado&lt;/span&gt;&lt;br&gt;&lt;/font&gt;" style="ellipse;whiteSpace=wrap;html=1;" vertex="1" parent="1">
          <mxGeometry x="150" y="320" width="63.5" height="30" as="geometry" />
        </mxCell>
        <mxCell id="TL1BfnCfJIUlocQQRKoT-32" value="Usuarios" style="rounded=0;whiteSpace=wrap;html=1;" vertex="1" parent="1">
          <mxGeometry x="568" y="125" width="110" height="40" as="geometry" />
        </mxCell>
        <mxCell id="TL1BfnCfJIUlocQQRKoT-33" value="&lt;font style=&quot;&quot;&gt;&lt;span style=&quot;font-size: 10px;&quot;&gt;Nombre y Apellido&lt;/span&gt;&lt;br&gt;&lt;/font&gt;" style="ellipse;whiteSpace=wrap;html=1;" vertex="1" parent="1">
          <mxGeometry x="666.5" y="60" width="63.5" height="30" as="geometry" />
        </mxCell>
        <mxCell id="TL1BfnCfJIUlocQQRKoT-34" value="&lt;font style=&quot;&quot;&gt;&lt;span style=&quot;font-size: 10px;&quot;&gt;Nombre de Usuario&lt;/span&gt;&lt;br&gt;&lt;/font&gt;" style="ellipse;whiteSpace=wrap;html=1;" vertex="1" parent="1">
          <mxGeometry x="720" y="95" width="63.5" height="30" as="geometry" />
        </mxCell>
        <mxCell id="TL1BfnCfJIUlocQQRKoT-35" value="&lt;font style=&quot;&quot;&gt;&lt;span style=&quot;font-size: 10px;&quot;&gt;Contraseña&lt;/span&gt;&lt;br&gt;&lt;/font&gt;" style="ellipse;whiteSpace=wrap;html=1;" vertex="1" parent="1">
          <mxGeometry x="475" y="130" width="63.5" height="30" as="geometry" />
        </mxCell>
        <mxCell id="TL1BfnCfJIUlocQQRKoT-36" value="&lt;font style=&quot;&quot;&gt;&lt;span style=&quot;font-size: 10px;&quot;&gt;Fecha de Registro&lt;/span&gt;&lt;br&gt;&lt;/font&gt;" style="ellipse;whiteSpace=wrap;html=1;" vertex="1" parent="1">
          <mxGeometry x="503.5" y="62.5" width="63.5" height="30" as="geometry" />
        </mxCell>
        <mxCell id="TL1BfnCfJIUlocQQRKoT-37" value="&lt;font style=&quot;&quot;&gt;&lt;span style=&quot;font-size: 10px;&quot;&gt;Avatar&lt;/span&gt;&lt;br&gt;&lt;/font&gt;" style="ellipse;whiteSpace=wrap;html=1;" vertex="1" parent="1">
          <mxGeometry x="720" y="195" width="63.5" height="30" as="geometry" />
        </mxCell>
        <mxCell id="TL1BfnCfJIUlocQQRKoT-38" value="&lt;font style=&quot;&quot;&gt;&lt;span style=&quot;font-size: 10px;&quot;&gt;Email Único&lt;/span&gt;&lt;br&gt;&lt;/font&gt;" style="ellipse;whiteSpace=wrap;html=1;" vertex="1" parent="1">
          <mxGeometry x="591.25" y="57.5" width="63.5" height="30" as="geometry" />
        </mxCell>
        <mxCell id="TL1BfnCfJIUlocQQRKoT-39" value="Categorías" style="rounded=0;whiteSpace=wrap;html=1;" vertex="1" parent="1">
          <mxGeometry x="240" y="525" width="110" height="40" as="geometry" />
        </mxCell>
        <mxCell id="TL1BfnCfJIUlocQQRKoT-40" value="&lt;font style=&quot;&quot;&gt;&lt;span style=&quot;font-size: 10px;&quot;&gt;Nombre Único&lt;/span&gt;&lt;br&gt;&lt;/font&gt;" style="ellipse;whiteSpace=wrap;html=1;" vertex="1" parent="1">
          <mxGeometry x="115.13" y="585" width="63.5" height="30" as="geometry" />
        </mxCell>
        <mxCell id="TL1BfnCfJIUlocQQRKoT-41" value="&lt;font style=&quot;&quot;&gt;&lt;span style=&quot;font-size: 10px;&quot;&gt;Descripción&lt;/span&gt;&lt;br&gt;&lt;/font&gt;" style="ellipse;whiteSpace=wrap;html=1;" vertex="1" parent="1">
          <mxGeometry x="173.5" y="620" width="63.5" height="30" as="geometry" />
        </mxCell>
        <mxCell id="TL1BfnCfJIUlocQQRKoT-42" value="&lt;font style=&quot;&quot;&gt;&lt;span style=&quot;font-size: 10px;&quot;&gt;Imagen que lo identifica&lt;/span&gt;&lt;br&gt;&lt;/font&gt;" style="ellipse;whiteSpace=wrap;html=1;" vertex="1" parent="1">
          <mxGeometry x="115.13" y="530" width="63.5" height="30" as="geometry" />
        </mxCell>
        <mxCell id="TL1BfnCfJIUlocQQRKoT-43" value="&lt;font style=&quot;&quot;&gt;&lt;span style=&quot;font-size: 10px;&quot;&gt;Estado&lt;/span&gt;&lt;br&gt;&lt;/font&gt;" style="ellipse;whiteSpace=wrap;html=1;dashed=1;dashPattern=1 1;" vertex="1" parent="1">
          <mxGeometry x="115.13" y="465" width="63.5" height="30" as="geometry" />
        </mxCell>
        <mxCell id="TL1BfnCfJIUlocQQRKoT-44" value="" style="endArrow=none;html=1;rounded=0;exitX=1;exitY=0.5;exitDx=0;exitDy=0;entryX=0;entryY=0.75;entryDx=0;entryDy=0;" edge="1" parent="1" source="TL1BfnCfJIUlocQQRKoT-40" target="TL1BfnCfJIUlocQQRKoT-39">
          <mxGeometry width="50" height="50" relative="1" as="geometry">
            <mxPoint x="340" y="555" as="sourcePoint" />
            <mxPoint x="390" y="505" as="targetPoint" />
          </mxGeometry>
        </mxCell>
        <mxCell id="TL1BfnCfJIUlocQQRKoT-45" value="" style="endArrow=none;html=1;rounded=0;exitX=1;exitY=0;exitDx=0;exitDy=0;entryX=0.25;entryY=1;entryDx=0;entryDy=0;" edge="1" parent="1" source="TL1BfnCfJIUlocQQRKoT-41" target="TL1BfnCfJIUlocQQRKoT-39">
          <mxGeometry width="50" height="50" relative="1" as="geometry">
            <mxPoint x="214" y="540" as="sourcePoint" />
            <mxPoint x="250" y="545" as="targetPoint" />
          </mxGeometry>
        </mxCell>
        <mxCell id="TL1BfnCfJIUlocQQRKoT-46" value="" style="endArrow=none;html=1;rounded=0;exitX=1;exitY=0.5;exitDx=0;exitDy=0;entryX=0;entryY=0.5;entryDx=0;entryDy=0;" edge="1" parent="1" source="TL1BfnCfJIUlocQQRKoT-42" target="TL1BfnCfJIUlocQQRKoT-39">
          <mxGeometry width="50" height="50" relative="1" as="geometry">
            <mxPoint x="214" y="580" as="sourcePoint" />
            <mxPoint x="250" y="565" as="targetPoint" />
          </mxGeometry>
        </mxCell>
        <mxCell id="TL1BfnCfJIUlocQQRKoT-47" value="" style="endArrow=none;html=1;rounded=0;entryX=1;entryY=1;entryDx=0;entryDy=0;exitX=0;exitY=0.25;exitDx=0;exitDy=0;" edge="1" parent="1" source="TL1BfnCfJIUlocQQRKoT-39" target="TL1BfnCfJIUlocQQRKoT-43">
          <mxGeometry width="50" height="50" relative="1" as="geometry">
            <mxPoint x="210" y="498" as="sourcePoint" />
            <mxPoint x="305" y="575" as="targetPoint" />
          </mxGeometry>
        </mxCell>
        <mxCell id="TL1BfnCfJIUlocQQRKoT-48" value="" style="endArrow=none;html=1;rounded=0;exitX=1;exitY=0;exitDx=0;exitDy=0;entryX=0;entryY=0.75;entryDx=0;entryDy=0;" edge="1" parent="1" source="TL1BfnCfJIUlocQQRKoT-31" target="TL1BfnCfJIUlocQQRKoT-7">
          <mxGeometry width="50" height="50" relative="1" as="geometry">
            <mxPoint x="315" y="480" as="sourcePoint" />
            <mxPoint x="315" y="460" as="targetPoint" />
          </mxGeometry>
        </mxCell>
        <mxCell id="TL1BfnCfJIUlocQQRKoT-49" value="" style="endArrow=none;html=1;rounded=0;exitX=1;exitY=0.5;exitDx=0;exitDy=0;entryX=0;entryY=0.5;entryDx=0;entryDy=0;" edge="1" parent="1" source="TL1BfnCfJIUlocQQRKoT-27" target="TL1BfnCfJIUlocQQRKoT-7">
          <mxGeometry width="50" height="50" relative="1" as="geometry">
            <mxPoint x="184" y="355" as="sourcePoint" />
            <mxPoint x="250" y="320" as="targetPoint" />
          </mxGeometry>
        </mxCell>
        <mxCell id="TL1BfnCfJIUlocQQRKoT-50" value="" style="endArrow=none;html=1;rounded=0;exitX=1;exitY=1;exitDx=0;exitDy=0;entryX=0;entryY=0.25;entryDx=0;entryDy=0;" edge="1" parent="1" source="TL1BfnCfJIUlocQQRKoT-26" target="TL1BfnCfJIUlocQQRKoT-7">
          <mxGeometry width="50" height="50" relative="1" as="geometry">
            <mxPoint x="184" y="315" as="sourcePoint" />
            <mxPoint x="250" y="310" as="targetPoint" />
          </mxGeometry>
        </mxCell>
        <mxCell id="TL1BfnCfJIUlocQQRKoT-51" value="" style="endArrow=none;html=1;rounded=0;exitX=0;exitY=0;exitDx=0;exitDy=0;entryX=1;entryY=0.75;entryDx=0;entryDy=0;" edge="1" parent="1" source="TL1BfnCfJIUlocQQRKoT-28" target="TL1BfnCfJIUlocQQRKoT-7">
          <mxGeometry width="50" height="50" relative="1" as="geometry">
            <mxPoint x="184" y="275" as="sourcePoint" />
            <mxPoint x="460" y="220" as="targetPoint" />
          </mxGeometry>
        </mxCell>
        <mxCell id="TL1BfnCfJIUlocQQRKoT-52" value="" style="endArrow=none;html=1;rounded=0;exitX=0.5;exitY=0;exitDx=0;exitDy=0;entryX=0.75;entryY=1;entryDx=0;entryDy=0;" edge="1" parent="1" source="TL1BfnCfJIUlocQQRKoT-29" target="TL1BfnCfJIUlocQQRKoT-7">
          <mxGeometry width="50" height="50" relative="1" as="geometry">
            <mxPoint x="410" y="265" as="sourcePoint" />
            <mxPoint x="360" y="300" as="targetPoint" />
          </mxGeometry>
        </mxCell>
        <mxCell id="TL1BfnCfJIUlocQQRKoT-54" value="" style="endArrow=none;html=1;rounded=0;exitX=1;exitY=0;exitDx=0;exitDy=0;entryX=0.25;entryY=1;entryDx=0;entryDy=0;" edge="1" parent="1" source="TL1BfnCfJIUlocQQRKoT-30" target="TL1BfnCfJIUlocQQRKoT-7">
          <mxGeometry width="50" height="50" relative="1" as="geometry">
            <mxPoint x="410" y="310" as="sourcePoint" />
            <mxPoint x="360" y="310" as="targetPoint" />
          </mxGeometry>
        </mxCell>
        <mxCell id="TL1BfnCfJIUlocQQRKoT-56" value="" style="endArrow=none;html=1;rounded=0;entryX=1;entryY=0.25;entryDx=0;entryDy=0;exitX=0;exitY=0.5;exitDx=0;exitDy=0;" edge="1" parent="1" source="TL1BfnCfJIUlocQQRKoT-34" target="TL1BfnCfJIUlocQQRKoT-32">
          <mxGeometry width="50" height="50" relative="1" as="geometry">
            <mxPoint x="614.25" y="248" as="sourcePoint" />
            <mxPoint x="578" y="360.5" as="targetPoint" />
          </mxGeometry>
        </mxCell>
        <mxCell id="TL1BfnCfJIUlocQQRKoT-57" value="" style="endArrow=none;html=1;rounded=0;exitX=0.5;exitY=1;exitDx=0;exitDy=0;entryX=0.5;entryY=0;entryDx=0;entryDy=0;" edge="1" parent="1" source="TL1BfnCfJIUlocQQRKoT-38" target="TL1BfnCfJIUlocQQRKoT-32">
          <mxGeometry width="50" height="50" relative="1" as="geometry">
            <mxPoint x="583.75" y="370.5" as="sourcePoint" />
            <mxPoint x="609.75" y="370.5" as="targetPoint" />
          </mxGeometry>
        </mxCell>
        <mxCell id="TL1BfnCfJIUlocQQRKoT-58" value="" style="endArrow=none;html=1;rounded=0;exitX=1;exitY=0.5;exitDx=0;exitDy=0;entryX=0;entryY=0.5;entryDx=0;entryDy=0;" edge="1" parent="1" source="TL1BfnCfJIUlocQQRKoT-35" target="TL1BfnCfJIUlocQQRKoT-32">
          <mxGeometry width="50" height="50" relative="1" as="geometry">
            <mxPoint x="518.5" y="338" as="sourcePoint" />
            <mxPoint x="606" y="380.5" as="targetPoint" />
          </mxGeometry>
        </mxCell>
        <mxCell id="TL1BfnCfJIUlocQQRKoT-59" value="" style="endArrow=none;html=1;rounded=0;exitX=0;exitY=0;exitDx=0;exitDy=0;entryX=0.75;entryY=1;entryDx=0;entryDy=0;" edge="1" parent="1" source="TL1BfnCfJIUlocQQRKoT-37" target="TL1BfnCfJIUlocQQRKoT-32">
          <mxGeometry width="50" height="50" relative="1" as="geometry">
            <mxPoint x="566" y="455.5" as="sourcePoint" />
            <mxPoint x="616" y="390.5" as="targetPoint" />
          </mxGeometry>
        </mxCell>
        <mxCell id="TL1BfnCfJIUlocQQRKoT-60" value="" style="endArrow=none;html=1;rounded=0;exitX=0.25;exitY=0;exitDx=0;exitDy=0;entryX=0.5;entryY=1;entryDx=0;entryDy=0;" edge="1" parent="1" source="TL1BfnCfJIUlocQQRKoT-32" target="TL1BfnCfJIUlocQQRKoT-36">
          <mxGeometry width="50" height="50" relative="1" as="geometry">
            <mxPoint x="576" y="465.5" as="sourcePoint" />
            <mxPoint x="626" y="400.5" as="targetPoint" />
          </mxGeometry>
        </mxCell>
        <mxCell id="TL1BfnCfJIUlocQQRKoT-61" value="&lt;font style=&quot;&quot;&gt;&lt;span style=&quot;font-size: 10px;&quot;&gt;Teléfono&lt;/span&gt;&lt;br&gt;&lt;/font&gt;" style="ellipse;whiteSpace=wrap;html=1;gradientColor=none;shadow=0;strokeColor=default;strokeWidth=1;perimeterSpacing=0;" vertex="1" parent="1">
          <mxGeometry x="110" y="60" width="63.5" height="30" as="geometry" />
        </mxCell>
        <mxCell id="TL1BfnCfJIUlocQQRKoT-62" value="&lt;font style=&quot;&quot;&gt;&lt;span style=&quot;font-size: 10px;&quot;&gt;Teléfono&lt;/span&gt;&lt;br&gt;&lt;/font&gt;" style="ellipse;whiteSpace=wrap;html=1;gradientColor=none;shadow=0;strokeColor=default;strokeWidth=1;perimeterSpacing=0;" vertex="1" parent="1">
          <mxGeometry x="115.13" y="62.5" width="53.25" height="25" as="geometry" />
        </mxCell>
        <mxCell id="TL1BfnCfJIUlocQQRKoT-63" value="&lt;font style=&quot;&quot;&gt;&lt;span style=&quot;font-size: 10px;&quot;&gt;Activo&lt;/span&gt;&lt;br&gt;&lt;/font&gt;" style="ellipse;whiteSpace=wrap;html=1;" vertex="1" parent="1">
          <mxGeometry x="30" y="435" width="63.5" height="30" as="geometry" />
        </mxCell>
        <mxCell id="TL1BfnCfJIUlocQQRKoT-64" value="&lt;font style=&quot;&quot;&gt;&lt;span style=&quot;font-size: 10px;&quot;&gt;Inactivo&lt;/span&gt;&lt;br&gt;&lt;/font&gt;" style="ellipse;whiteSpace=wrap;html=1;" vertex="1" parent="1">
          <mxGeometry x="30" y="500" width="63.5" height="30" as="geometry" />
        </mxCell>
        <mxCell id="TL1BfnCfJIUlocQQRKoT-65" value="" style="endArrow=none;html=1;rounded=0;exitX=0;exitY=0;exitDx=0;exitDy=0;entryX=1;entryY=1;entryDx=0;entryDy=0;" edge="1" parent="1" source="TL1BfnCfJIUlocQQRKoT-43" target="TL1BfnCfJIUlocQQRKoT-63">
          <mxGeometry width="50" height="50" relative="1" as="geometry">
            <mxPoint x="55.12999999999998" y="383" as="sourcePoint" />
            <mxPoint x="105.13" y="333" as="targetPoint" />
          </mxGeometry>
        </mxCell>
        <mxCell id="TL1BfnCfJIUlocQQRKoT-66" value="" style="endArrow=none;html=1;rounded=0;exitX=0;exitY=1;exitDx=0;exitDy=0;entryX=1;entryY=0;entryDx=0;entryDy=0;" edge="1" parent="1" source="TL1BfnCfJIUlocQQRKoT-43" target="TL1BfnCfJIUlocQQRKoT-64">
          <mxGeometry width="50" height="50" relative="1" as="geometry">
            <mxPoint x="179.13" y="472" as="sourcePoint" />
            <mxPoint x="215.13" y="464" as="targetPoint" />
          </mxGeometry>
        </mxCell>
        <mxCell id="TL1BfnCfJIUlocQQRKoT-67" value="(1:1)" style="text;html=1;strokeColor=none;fillColor=none;align=center;verticalAlign=middle;whiteSpace=wrap;rounded=0;" vertex="1" parent="1">
          <mxGeometry x="250" y="250" width="60" height="30" as="geometry" />
        </mxCell>
        <mxCell id="TL1BfnCfJIUlocQQRKoT-68" value="&lt;span style=&quot;font-size: 10px;&quot;&gt;se agrupan en&amp;nbsp;&lt;/span&gt;" style="rhombus;whiteSpace=wrap;html=1;" vertex="1" parent="1">
          <mxGeometry x="250" y="430" width="90" height="30" as="geometry" />
        </mxCell>
        <mxCell id="TL1BfnCfJIUlocQQRKoT-69" value="" style="endArrow=none;html=1;rounded=0;exitX=0.5;exitY=0;exitDx=0;exitDy=0;entryX=0.5;entryY=1;entryDx=0;entryDy=0;" edge="1" parent="1" source="TL1BfnCfJIUlocQQRKoT-39" target="TL1BfnCfJIUlocQQRKoT-68">
          <mxGeometry width="50" height="50" relative="1" as="geometry">
            <mxPoint x="340" y="508" as="sourcePoint" />
            <mxPoint x="390" y="458" as="targetPoint" />
          </mxGeometry>
        </mxCell>
        <mxCell id="TL1BfnCfJIUlocQQRKoT-70" value="" style="endArrow=none;html=1;rounded=0;exitX=0.5;exitY=0;exitDx=0;exitDy=0;entryX=0.5;entryY=1;entryDx=0;entryDy=0;" edge="1" parent="1" source="TL1BfnCfJIUlocQQRKoT-68" target="TL1BfnCfJIUlocQQRKoT-7">
          <mxGeometry width="50" height="50" relative="1" as="geometry">
            <mxPoint x="305" y="457" as="sourcePoint" />
            <mxPoint x="305" y="400" as="targetPoint" />
          </mxGeometry>
        </mxCell>
        <mxCell id="TL1BfnCfJIUlocQQRKoT-71" value="(n:1)" style="text;html=1;strokeColor=none;fillColor=none;align=center;verticalAlign=middle;whiteSpace=wrap;rounded=0;" vertex="1" parent="1">
          <mxGeometry x="250" y="320" width="60" height="30" as="geometry" />
        </mxCell>
        <mxCell id="TL1BfnCfJIUlocQQRKoT-72" value="(1:n)" style="text;html=1;strokeColor=none;fillColor=none;align=center;verticalAlign=middle;whiteSpace=wrap;rounded=0;" vertex="1" parent="1">
          <mxGeometry x="250" y="495" width="60" height="30" as="geometry" />
        </mxCell>
        <mxCell id="TL1BfnCfJIUlocQQRKoT-73" value="&lt;span style=&quot;font-size: 10px;&quot;&gt;Realizan&lt;/span&gt;" style="rhombus;whiteSpace=wrap;html=1;" vertex="1" parent="1">
          <mxGeometry x="578" y="210" width="90" height="30" as="geometry" />
        </mxCell>
        <mxCell id="TL1BfnCfJIUlocQQRKoT-74" value="&lt;font style=&quot;&quot;&gt;&lt;span style=&quot;font-size: 10px;&quot;&gt;&lt;u&gt;ID&lt;/u&gt;&lt;/span&gt;&lt;br&gt;&lt;/font&gt;" style="ellipse;whiteSpace=wrap;html=1;" vertex="1" parent="1">
          <mxGeometry x="720" y="285" width="63.5" height="30" as="geometry" />
        </mxCell>
        <mxCell id="TL1BfnCfJIUlocQQRKoT-75" value="&lt;font style=&quot;&quot;&gt;&lt;span style=&quot;font-size: 10px;&quot;&gt;Texto&lt;/span&gt;&lt;br&gt;&lt;/font&gt;" style="ellipse;whiteSpace=wrap;html=1;" vertex="1" parent="1">
          <mxGeometry x="591.25" y="350" width="63.5" height="30" as="geometry" />
        </mxCell>
        <mxCell id="TL1BfnCfJIUlocQQRKoT-76" value="" style="endArrow=none;html=1;rounded=0;exitX=0;exitY=0.5;exitDx=0;exitDy=0;entryX=1;entryY=0.5;entryDx=0;entryDy=0;" edge="1" parent="1" source="TL1BfnCfJIUlocQQRKoT-74" target="TL1BfnCfJIUlocQQRKoT-86">
          <mxGeometry width="50" height="50" relative="1" as="geometry">
            <mxPoint x="605.12" y="570" as="sourcePoint" />
            <mxPoint x="655.12" y="520" as="targetPoint" />
          </mxGeometry>
        </mxCell>
        <mxCell id="TL1BfnCfJIUlocQQRKoT-77" value="" style="endArrow=none;html=1;rounded=0;exitX=0.5;exitY=1;exitDx=0;exitDy=0;entryX=0.5;entryY=0;entryDx=0;entryDy=0;" edge="1" parent="1" source="TL1BfnCfJIUlocQQRKoT-86" target="TL1BfnCfJIUlocQQRKoT-75">
          <mxGeometry width="50" height="50" relative="1" as="geometry">
            <mxPoint x="492.12" y="605" as="sourcePoint" />
            <mxPoint x="525.12" y="605" as="targetPoint" />
          </mxGeometry>
        </mxCell>
        <mxCell id="TL1BfnCfJIUlocQQRKoT-80" value="&lt;span style=&quot;font-size: 10px;&quot;&gt;puede contener otra&lt;/span&gt;" style="rhombus;whiteSpace=wrap;html=1;" vertex="1" parent="1">
          <mxGeometry x="371.75" y="530" width="90" height="30" as="geometry" />
        </mxCell>
        <mxCell id="TL1BfnCfJIUlocQQRKoT-81" value="" style="endArrow=none;html=1;rounded=0;entryX=0.5;entryY=0;entryDx=0;entryDy=0;exitX=0.75;exitY=0;exitDx=0;exitDy=0;" edge="1" parent="1" source="TL1BfnCfJIUlocQQRKoT-39" target="TL1BfnCfJIUlocQQRKoT-80">
          <mxGeometry width="50" height="50" relative="1" as="geometry">
            <mxPoint x="380" y="508" as="sourcePoint" />
            <mxPoint x="390" y="458" as="targetPoint" />
            <Array as="points">
              <mxPoint x="323" y="498" />
              <mxPoint x="417" y="498" />
            </Array>
          </mxGeometry>
        </mxCell>
        <mxCell id="TL1BfnCfJIUlocQQRKoT-82" value="" style="endArrow=none;html=1;rounded=0;exitX=0.75;exitY=1;exitDx=0;exitDy=0;entryX=0.5;entryY=1;entryDx=0;entryDy=0;" edge="1" parent="1" source="TL1BfnCfJIUlocQQRKoT-39" target="TL1BfnCfJIUlocQQRKoT-80">
          <mxGeometry width="50" height="50" relative="1" as="geometry">
            <mxPoint x="360" y="535" as="sourcePoint" />
            <mxPoint x="442" y="540" as="targetPoint" />
            <Array as="points">
              <mxPoint x="323" y="588" />
              <mxPoint x="417" y="588" />
            </Array>
          </mxGeometry>
        </mxCell>
        <mxCell id="TL1BfnCfJIUlocQQRKoT-83" value="(1:n)" style="text;html=1;strokeColor=none;fillColor=none;align=center;verticalAlign=middle;whiteSpace=wrap;rounded=0;" vertex="1" parent="1">
          <mxGeometry x="401.75" y="505" width="60" height="30" as="geometry" />
        </mxCell>
        <mxCell id="TL1BfnCfJIUlocQQRKoT-84" value="(1:n)" style="text;html=1;strokeColor=none;fillColor=none;align=center;verticalAlign=middle;whiteSpace=wrap;rounded=0;" vertex="1" parent="1">
          <mxGeometry x="401.75" y="560" width="60" height="30" as="geometry" />
        </mxCell>
        <mxCell id="TL1BfnCfJIUlocQQRKoT-85" value="&lt;span style=&quot;font-size: 10px;&quot;&gt;reciben&lt;/span&gt;" style="rhombus;whiteSpace=wrap;html=1;" vertex="1" parent="1">
          <mxGeometry x="413.5" y="285" width="90" height="30" as="geometry" />
        </mxCell>
        <mxCell id="TL1BfnCfJIUlocQQRKoT-86" value="Comentarios" style="rounded=0;whiteSpace=wrap;html=1;" vertex="1" parent="1">
          <mxGeometry x="568" y="280" width="110" height="40" as="geometry" />
        </mxCell>
        <mxCell id="TL1BfnCfJIUlocQQRKoT-88" value="" style="endArrow=none;html=1;rounded=0;entryX=0.5;entryY=1;entryDx=0;entryDy=0;exitX=0.5;exitY=0;exitDx=0;exitDy=0;" edge="1" parent="1" source="TL1BfnCfJIUlocQQRKoT-73" target="TL1BfnCfJIUlocQQRKoT-32">
          <mxGeometry width="50" height="50" relative="1" as="geometry">
            <mxPoint x="538.25" y="420" as="sourcePoint" />
            <mxPoint x="438" y="370" as="targetPoint" />
          </mxGeometry>
        </mxCell>
        <mxCell id="TL1BfnCfJIUlocQQRKoT-89" value="" style="endArrow=none;html=1;rounded=0;entryX=0.5;entryY=1;entryDx=0;entryDy=0;exitX=0.75;exitY=0;exitDx=0;exitDy=0;" edge="1" parent="1" source="TL1BfnCfJIUlocQQRKoT-32" target="TL1BfnCfJIUlocQQRKoT-33">
          <mxGeometry width="50" height="50" relative="1" as="geometry">
            <mxPoint x="384.25" y="388" as="sourcePoint" />
            <mxPoint x="434.25" y="338" as="targetPoint" />
          </mxGeometry>
        </mxCell>
        <mxCell id="TL1BfnCfJIUlocQQRKoT-90" value="" style="endArrow=none;html=1;rounded=0;exitX=0.5;exitY=0;exitDx=0;exitDy=0;entryX=0.5;entryY=1;entryDx=0;entryDy=0;" edge="1" parent="1" source="TL1BfnCfJIUlocQQRKoT-86" target="TL1BfnCfJIUlocQQRKoT-73">
          <mxGeometry width="50" height="50" relative="1" as="geometry">
            <mxPoint x="338.25" y="670" as="sourcePoint" />
            <mxPoint x="368.25" y="590" as="targetPoint" />
          </mxGeometry>
        </mxCell>
        <mxCell id="TL1BfnCfJIUlocQQRKoT-91" value="(n:n)" style="text;html=1;strokeColor=none;fillColor=none;align=center;verticalAlign=middle;whiteSpace=wrap;rounded=0;" vertex="1" parent="1">
          <mxGeometry x="608" y="165" width="60" height="30" as="geometry" />
        </mxCell>
        <mxCell id="TL1BfnCfJIUlocQQRKoT-92" value="(n:n)" style="text;html=1;strokeColor=none;fillColor=none;align=center;verticalAlign=middle;whiteSpace=wrap;rounded=0;" vertex="1" parent="1">
          <mxGeometry x="608" y="250" width="60" height="30" as="geometry" />
        </mxCell>
        <mxCell id="TL1BfnCfJIUlocQQRKoT-93" value="(0:n)" style="text;html=1;strokeColor=none;fillColor=none;align=center;verticalAlign=middle;whiteSpace=wrap;rounded=0;" vertex="1" parent="1">
          <mxGeometry x="490" y="300" width="60" height="30" as="geometry" />
        </mxCell>
        <mxCell id="TL1BfnCfJIUlocQQRKoT-94" value="(1:n)" style="text;html=1;strokeColor=none;fillColor=none;align=center;verticalAlign=middle;whiteSpace=wrap;rounded=0;" vertex="1" parent="1">
          <mxGeometry x="382" y="300" width="60" height="30" as="geometry" />
        </mxCell>
        <mxCell id="TL1BfnCfJIUlocQQRKoT-95" value="&lt;font style=&quot;&quot;&gt;&lt;span style=&quot;font-size: 10px;&quot;&gt;&lt;u&gt;ID&lt;br&gt;Usuario&lt;/u&gt;&lt;/span&gt;&lt;br&gt;&lt;/font&gt;" style="ellipse;whiteSpace=wrap;html=1;" vertex="1" parent="1">
          <mxGeometry x="720" y="150" width="63.5" height="30" as="geometry" />
        </mxCell>
        <mxCell id="TL1BfnCfJIUlocQQRKoT-96" value="" style="endArrow=none;html=1;rounded=0;entryX=0;entryY=0.5;entryDx=0;entryDy=0;exitX=1;exitY=0.75;exitDx=0;exitDy=0;" edge="1" parent="1" source="TL1BfnCfJIUlocQQRKoT-32" target="TL1BfnCfJIUlocQQRKoT-95">
          <mxGeometry width="50" height="50" relative="1" as="geometry">
            <mxPoint x="700" y="120" as="sourcePoint" />
            <mxPoint x="424.25" y="248" as="targetPoint" />
          </mxGeometry>
        </mxCell>
        <mxCell id="TL1BfnCfJIUlocQQRKoT-98" value="&lt;font style=&quot;&quot;&gt;&lt;span style=&quot;font-size: 10px;&quot;&gt;Contraseña&lt;/span&gt;&lt;br&gt;&lt;/font&gt;" style="ellipse;whiteSpace=wrap;html=1;" vertex="1" parent="1">
          <mxGeometry x="110.00999999999999" y="140" width="63.5" height="30" as="geometry" />
        </mxCell>
        <mxCell id="ST1A_eDkLbn5oqK2p9ZH-1" value="&lt;font style=&quot;&quot;&gt;&lt;span style=&quot;font-size: 10px;&quot;&gt;&lt;u&gt;ID&lt;br&gt;Artículo&lt;/u&gt;&lt;/span&gt;&lt;br&gt;&lt;/font&gt;" style="ellipse;whiteSpace=wrap;html=1;" vertex="1" parent="1">
          <mxGeometry x="150" y="357" width="63.5" height="30" as="geometry" />
        </mxCell>
        <mxCell id="ST1A_eDkLbn5oqK2p9ZH-2" value="&lt;font style=&quot;&quot;&gt;&lt;span style=&quot;font-size: 10px;&quot;&gt;&lt;u&gt;ID&lt;br&gt;Artículo&lt;/u&gt;&lt;/span&gt;&lt;br&gt;&lt;/font&gt;" style="ellipse;whiteSpace=wrap;html=1;" vertex="1" parent="1">
          <mxGeometry x="263.25" y="620" width="63.5" height="30" as="geometry" />
        </mxCell>
        <mxCell id="ST1A_eDkLbn5oqK2p9ZH-3" value="" style="endArrow=none;html=1;rounded=0;exitX=0.5;exitY=0;exitDx=0;exitDy=0;entryX=0.5;entryY=1;entryDx=0;entryDy=0;" edge="1" parent="1" source="ST1A_eDkLbn5oqK2p9ZH-2" target="TL1BfnCfJIUlocQQRKoT-39">
          <mxGeometry width="50" height="50" relative="1" as="geometry">
            <mxPoint x="390" y="608" as="sourcePoint" />
            <mxPoint x="220" y="588" as="targetPoint" />
          </mxGeometry>
        </mxCell>
        <mxCell id="ST1A_eDkLbn5oqK2p9ZH-4" value="" style="endArrow=none;html=1;rounded=0;entryX=1;entryY=0;entryDx=0;entryDy=0;exitX=0.25;exitY=1;exitDx=0;exitDy=0;" edge="1" parent="1" source="TL1BfnCfJIUlocQQRKoT-7" target="ST1A_eDkLbn5oqK2p9ZH-1">
          <mxGeometry width="50" height="50" relative="1" as="geometry">
            <mxPoint x="230" y="330" as="sourcePoint" />
            <mxPoint x="440" y="480" as="targetPoint" />
          </mxGeometry>
        </mxCell>
        <mxCell id="wiXWarwER1bx7PoSOM60-2" value="" style="endArrow=none;html=1;rounded=0;exitX=1;exitY=0.5;exitDx=0;exitDy=0;entryX=0;entryY=0.5;entryDx=0;entryDy=0;" edge="1" parent="1" source="TL1BfnCfJIUlocQQRKoT-7" target="TL1BfnCfJIUlocQQRKoT-85">
          <mxGeometry width="50" height="50" relative="1" as="geometry">
            <mxPoint x="420" y="320" as="sourcePoint" />
            <mxPoint x="500" y="440" as="targetPoint" />
          </mxGeometry>
        </mxCell>
        <mxCell id="wiXWarwER1bx7PoSOM60-4" value="" style="endArrow=none;html=1;rounded=0;exitX=0;exitY=0.5;exitDx=0;exitDy=0;entryX=1;entryY=0.5;entryDx=0;entryDy=0;" edge="1" parent="1" source="TL1BfnCfJIUlocQQRKoT-86" target="TL1BfnCfJIUlocQQRKoT-85">
          <mxGeometry width="50" height="50" relative="1" as="geometry">
            <mxPoint x="430" y="360" as="sourcePoint" />
            <mxPoint x="480" y="310" as="targetPoint" />
          </mxGeometry>
        </mxCell>
        <mxCell id="zVQTnprhdJtcDGBoLJPG-3" value="(n:n)" style="text;html=1;strokeColor=none;fillColor=none;align=center;verticalAlign=middle;whiteSpace=wrap;rounded=0;" vertex="1" parent="1">
          <mxGeometry x="428.5" y="255" width="60" height="30" as="geometry" />
        </mxCell>
        <mxCell id="zVQTnprhdJtcDGBoLJPG-4" value="(n:n)" style="text;html=1;strokeColor=none;fillColor=none;align=center;verticalAlign=middle;whiteSpace=wrap;rounded=0;" vertex="1" parent="1">
          <mxGeometry x="336.5" y="210" width="60" height="30" as="geometry" />
        </mxCell>
        <mxCell id="zVQTnprhdJtcDGBoLJPG-5" value="(n:n)" style="text;html=1;strokeColor=none;fillColor=none;align=center;verticalAlign=middle;whiteSpace=wrap;rounded=0;" vertex="1" parent="1">
          <mxGeometry x="195.25" y="430" width="60" height="30" as="geometry" />
        </mxCell>
        <mxCell id="zVQTnprhdJtcDGBoLJPG-6" value="(n:n)" style="text;html=1;strokeColor=none;fillColor=none;align=center;verticalAlign=middle;whiteSpace=wrap;rounded=0;" vertex="1" parent="1">
          <mxGeometry x="530" y="210" width="60" height="30" as="geometry" />
        </mxCell>
        <mxCell id="zVQTnprhdJtcDGBoLJPG-7" value="Nombre del equipo&amp;nbsp;" style="text;html=1;strokeColor=none;fillColor=none;align=center;verticalAlign=middle;whiteSpace=wrap;rounded=0;" vertex="1" parent="1">
          <mxGeometry x="548" y="490" width="72" height="30" as="geometry" />
        </mxCell>
        <mxCell id="zVQTnprhdJtcDGBoLJPG-8" value="=" style="text;html=1;strokeColor=none;fillColor=none;align=center;verticalAlign=middle;whiteSpace=wrap;rounded=0;" vertex="1" parent="1">
          <mxGeometry x="590" y="490" width="72" height="30" as="geometry" />
        </mxCell>
        <mxCell id="zVQTnprhdJtcDGBoLJPG-9" value="Grupo.isEmpty()" style="text;html=1;strokeColor=none;fillColor=none;align=center;verticalAlign=middle;whiteSpace=wrap;rounded=0;" vertex="1" parent="1">
          <mxGeometry x="640" y="490" width="72" height="30" as="geometry" />
        </mxCell>
      </root>
    </mxGraphModel>
  </diagram>
</mxfile>
